<?xml version="1.0" encoding="UTF-8"?><svg id="bg" xmlns="http://www.w3.org/2000/svg" viewBox="0 0 170.08 88.27"><path d="M51.41,69.11c-.48.41-.99.74-1.54.98-.55.24-1.17.36-1.86.37-.51,0-.96-.09-1.36-.3-.39-.21-.71-.57-.98-1.09-.26-.51-.46-1.23-.59-2.14-.14-.92-.2-2.08-.2-3.49,0-1.31.06-2.4.2-3.26.13-.85.33-1.51.59-2,.26-.48.58-.81.96-1,.38-.2.82-.29,1.32-.28.75,0,1.39.13,1.93.37.54.24,1.04.57,1.52.98v10.85ZM61.18,77.85v-39.35l-9.77,3.89v9.01c-.51-.41-1.08-.79-1.7-1.17-.61-.38-1.3-.69-2.05-.94-.76-.24-1.61-.37-2.56-.38-2.06,0-3.81.52-5.27,1.59-1.45,1.07-2.56,2.7-3.33,4.89-.77,2.19-1.16,4.97-1.17,8.36,0,2.63.25,4.87.72,6.74.48,1.86,1.14,3.37,2,4.55.85,1.17,1.84,2.03,2.98,2.57,1.13.55,2.37.83,3.7.82.98,0,1.86-.12,2.64-.33.77-.22,1.48-.53,2.14-.92.66-.39,1.3-.84,1.92-1.34v2h9.77ZM92.52,77.85v-28.34h-9.77v16.19c0,1.18-.13,2.1-.4,2.76-.26.66-.63,1.12-1.12,1.39-.49.27-1.06.4-1.73.39-.67,0-1.24-.12-1.73-.39-.49-.27-.85-.75-1.12-1.42-.26-.67-.4-1.62-.4-2.83v-16.08h-9.77v17.33c0,2.49.33,4.6,1,6.32.67,1.73,1.68,3.04,3.04,3.94,1.36.89,3.07,1.34,5.14,1.35,1.09,0,2.06-.12,2.91-.34.85-.23,1.61-.52,2.29-.9.67-.37,1.3-.78,1.87-1.24v1.89h9.77ZM108.3,75.16v-25.64h-9.72v26.18c0,1.27-.17,2.29-.56,3.09-.38.78-1.03,1.4-1.94,1.84-.92.43-2.17.76-3.76.96l3.24,6.69c2.24-.26,4.16-.68,5.77-1.26,1.61-.58,2.93-1.38,3.97-2.38,1.03-1.01,1.78-2.29,2.28-3.84.49-1.56.73-3.43.73-5.63M109.11,42.66c0-.93-.25-1.74-.73-2.44-.48-.71-1.13-1.26-1.98-1.66-.85-.4-1.84-.59-2.96-.6-1.07,0-2.02.21-2.86.6-.83.4-1.48.94-1.96,1.66-.49.7-.73,1.51-.74,2.44,0,.99.25,1.84.74,2.56.48.72,1.13,1.27,1.96,1.66.84.39,1.79.58,2.86.58,1.12,0,2.11-.2,2.96-.58.85-.39,1.5-.94,1.98-1.66.48-.72.72-1.57.73-2.56ZM130.35,63.93c0,1.31-.06,2.4-.19,3.25-.13.85-.31,1.52-.58,2.01-.25.48-.57.81-.94,1-.38.2-.81.29-1.31.28-.75,0-1.39-.13-1.93-.37-.55-.24-1.07-.57-1.57-.98v-10.85c.5-.41,1.03-.74,1.58-.98.56-.24,1.18-.36,1.87-.37.51,0,.96.09,1.35.3.38.21.7.57.96,1.09.25.51.44,1.22.58,2.14.13.92.19,2.08.19,3.49M139.96,63.6c0-2.63-.25-4.87-.72-6.74-.48-1.86-1.14-3.38-2-4.55-.85-1.17-1.85-2.03-3-2.58-1.14-.55-2.39-.82-3.73-.81-.98,0-1.85.12-2.62.33-.77.23-1.48.53-2.13.92-.66.39-1.3.83-1.94,1.34v-2h-9.72v38.75l9.72-3.89v-8.42c.52.4,1.09.79,1.71,1.17.62.38,1.31.69,2.07.94.76.24,1.6.37,2.54.38,2.08,0,3.84-.53,5.31-1.59,1.46-1.07,2.57-2.7,3.35-4.89.77-2.2,1.16-4.98,1.17-8.36ZM160.47,63.93c0,1.31-.06,2.4-.19,3.25-.13.85-.31,1.52-.58,2.01-.25.48-.57.81-.94,1-.38.2-.81.29-1.31.28-.75,0-1.39-.13-1.93-.37-.55-.24-1.07-.57-1.57-.98v-10.85c.5-.41,1.03-.74,1.58-.98.56-.24,1.18-.36,1.87-.37.51,0,.96.09,1.35.3.38.21.7.57.96,1.09.25.51.44,1.22.58,2.14.13.92.19,2.08.19,3.49M170.08,63.6c0-2.63-.25-4.87-.72-6.74-.48-1.86-1.14-3.38-2-4.55-.85-1.17-1.85-2.03-3-2.58-1.14-.55-2.39-.82-3.73-.81-.98,0-1.85.12-2.62.33-.77.23-1.48.53-2.13.92-.66.39-1.3.83-1.94,1.34v-2h-9.72v38.75l9.72-3.89v-8.42c.52.4,1.09.79,1.71,1.17.62.38,1.31.69,2.07.94.76.24,1.6.37,2.54.38,2.08,0,3.84-.53,5.31-1.59,1.46-1.07,2.57-2.7,3.35-4.89.77-2.2,1.16-4.98,1.17-8.36Z" style="fill:#fff;"/><path d="M14.28,77.95c-6.84-13.16-1.16-52.56,51.75-61.17.8-1.12,4.02-5.59,4.83-6.7-1.68-.58-8.38-2.88-10.06-3.45C3.85,22.6,3.16,63.83,10.8,77.95h3.49Z" style="fill:#8dc63f; fill-rule:evenodd;"/><path d="M17.13,77.95c-7.88-22.76,9.31-50.58,46.42-56.5-2.84,3.94-5.69,7.88-8.53,11.83-21.41,5.69-40.67,19.84-34.56,44.67-4.52,0-3.33,0-3.33,0ZM5.36,77.95h2.65C-5.99,43.13,21.51,13.71,55.29,4.59L41.3,0C8.45,15.64-9.7,44.64,5.36,77.95Z" style="fill:#fff;"/></svg>